<?xml version="1.0" encoding="UTF-8"?>
<svg id="Layer_1" xmlns="http://www.w3.org/2000/svg" version="1.1" viewBox="0 0 1200 1200">
  <!-- Generator: Adobe Illustrator 30.0.0, SVG Export Plug-In . SVG Version: 2.1.1 Build 123)  -->
  <defs>
    <style>
      .st0 {
        fill: #404e3b;
      }
    </style>
  </defs>
  <path class="st0" d="M630.7,1025.8l-30.7,15.91-30.7-15.91-266.74-138.28-152.57,79.12,450,233.32,450-233.32-152.57-79.12-266.73,138.28h.01Z"/>
  <path class="st0" d="M630.7,792.52l-30.7,15.91-30.7-15.91-266.74-138.28-152.57,79.1,450,233.33,450-233.33-152.57-79.1-266.73,138.28h.01Z"/>
  <path class="st0" d="M600,0c-92.04,0-166.67,74.63-166.67,166.67s166.67,333.35,166.67,333.35c0,0,166.67-241.29,166.67-333.35S692.04,0,600,0h0ZM600,233.33c-36.82,0-66.67-29.84-66.67-66.67s29.84-66.66,66.67-66.66,66.67,29.84,66.67,66.66-29.85,66.67-66.67,66.67Z"/>
  <path class="st0" d="M752.93,345.96c-15.86,29.9-32.84,59.17-48.89,85.45,47.85,15.04,79.29,40.14,79.29,68.58,0,46.01-82.08,83.34-183.32,83.34s-183.32-37.32-183.32-83.34c0-28.45,31.43-53.54,79.29-68.58-16.04-26.28-33.02-55.55-48.89-85.45l-297.08,154.05,450,233.32,450-233.32-297.08-154.05h0Z"/>
</svg>